# xmcd
#
# Track frame offsets:
#	150
#	9753
#	31606
#	62013
#	78621
#	93007
#	107539
#	129425
#
# Disc length: 2131 seconds
#
# Revision: 1
# Processed by: cddbd v1.5PL3 Copyright (c) Steve Scherf et al.
# Submitted via: CDex 1.50Beta5
#
DISCID=4b085108
DTITLE=Belive - チェキ2002
DYEAR=1900
DGENRE=
TTITLE0=Promised Island
TTITLE1=チェキ☆2002
TTITLE2=Beline
TTITLE3=Hi-tension
TTITLE4=HALFORD
TTITLE5=snou memories
TTITLE6=チェキ2002 インストゥメンタル
TTITLE7=Belive インストゥメンタル
EXTD=
EXTT0=
EXTT1=
EXTT2=
EXTT3=
EXTT4=
EXTT5=
EXTT6=
EXTT7=
PLAYORDER=
